0
SECTION
2
HEADER
9
$INSUNITS
70
4
9
$ACADVER
1
AC1014
9
$HANDSEED
5
FFFF
0
ENDSEC
0
SECTION
2
TABLES
0
TABLE
2
VPORT
5
8
100
AcDbSymbolTable
0
ENDTAB
0
TABLE
2
LTYPE
5
5
100
AcDbSymbolTable
0
LTYPE
5
14
100
AcDbSymbolTableRecord
100
AcDbLinetypeTableRecord
2
BYBLOCK
70
0
0
LTYPE
5
15
100
AcDbSymbolTableRecord
100
AcDbLinetypeTableRecord
2
BYLAYER
70
0
0
ENDTAB
0
TABLE
2
LAYER
5
2
100
AcDbSymbolTable
70
2
0
LAYER
5
50
100
AcDbSymbolTableRecord
100
AcDbLayerTableRecord
2
0
70
0
6
CONTINUOUS
0
ENDTAB
0
TABLE
2
STYLE
5
3
100
AcDbSymbolTable
70
1
0
STYLE
5
11
100
AcDbSymbolTableRecord
100
AcDbTextStyleTableRecord
2
STANDARD
70
0
0
ENDTAB
0
TABLE
2
VIEW
5
6
100
AcDbSymbolTable
70
0
0
ENDTAB
0
TABLE
2
UCS
5
7
100
AcDbSymbolTable
70
0
0
ENDTAB
0
TABLE
2
APPID
5
9
100
AcDbSymbolTable
70
2
0
APPID
5
12
100
AcDbSymbolTableRecord
100
AcDbRegAppTableRecord
2
ACAD
70
0
0
ENDTAB
0
TABLE
2
DIMSTYLE
5
A
100
AcDbSymbolTable
70
1
0
ENDTAB
0
TABLE
2
BLOCK_RECORD
5
1
100
AcDbSymbolTable
70
1
0
BLOCK_RECORD
5
1F
100
AcDbSymbolTableRecord
100
AcDbBlockTableRecord
2
*MODEL_SPACE
0
BLOCK_RECORD
5
1B
100
AcDbSymbolTableRecord
100
AcDbBlockTableRecord
2
*PAPER_SPACE
0
ENDTAB
0
ENDSEC
0
SECTION
2
BLOCKS
0
BLOCK
5
20
100
AcDbEntity
100
AcDbBlockBegin
2
*MODEL_SPACE
0
ENDBLK
5
21
100
AcDbEntity
100
AcDbBlockEnd
0
BLOCK
5
1C
100
AcDbEntity
100
AcDbBlockBegin
2
*PAPER_SPACE
0
ENDBLK
5
1D
100
AcDbEntity
100
AcDbBlockEnd
0
ENDSEC
0
SECTION
2
ENTITIES
0
LWPOLYLINE
5
100
100
AcDbEntity
8
0
100
AcDbPolyline
90
156
70
1
43
0.0
10
0
20
0
10
400
20
0
10
400
20
40
10
395
20
40
10
395
20
15
10
390
20
15
10
390
20
40
10
384.72972972972968
20
40
10
384.72972972972968
20
15
10
379.72972972972968
20
15
10
379.72972972972968
20
40
10
374.45945945945942
20
40
10
374.45945945945942
20
15
10
369.45945945945942
20
15
10
369.45945945945942
20
40
10
364.18918918918916
20
40
10
364.18918918918916
20
15
10
359.18918918918916
20
15
10
359.18918918918916
20
40
10
353.91891891891885
20
40
10
353.91891891891885
20
15
10
348.91891891891885
20
15
10
348.91891891891885
20
40
10
343.64864864864865
20
40
10
343.64864864864865
20
15
10
338.64864864864865
20
15
10
338.64864864864865
20
40
10
333.37837837837839
20
40
10
333.37837837837839
20
15
10
328.37837837837839
20
15
10
328.37837837837839
20
40
10
323.10810810810807
20
40
10
323.10810810810807
20
15
10
318.10810810810813
20
15
10
318.10810810810813
20
40
10
312.83783783783781
20
40
10
312.83783783783781
20
15
10
307.83783783783781
20
15
10
307.83783783783781
20
40
10
302.56756756756755
20
40
10
302.56756756756755
20
15
10
297.56756756756755
20
15
10
297.56756756756755
20
40
10
292.29729729729729
20
40
10
292.29729729729729
20
15
10
287.29729729729729
20
15
10
287.29729729729729
20
40
10
282.02702702702703
20
40
10
282.02702702702703
20
15
10
277.02702702702703
20
15
10
277.02702702702703
20
40
10
271.75675675675672
20
40
10
271.75675675675672
20
15
10
266.75675675675672
20
15
10
266.75675675675672
20
40
10
261.48648648648646
20
40
10
261.48648648648646
20
15
10
256.48648648648646
20
15
10
256.48648648648646
20
40
10
251.2162162162162
20
40
10
251.2162162162162
20
15
10
246.2162162162162
20
15
10
246.2162162162162
20
40
10
240.94594594594594
20
40
10
240.94594594594594
20
15
10
235.94594594594594
20
15
10
235.94594594594594
20
40
10
230.67567567567565
20
40
10
230.67567567567565
20
15
10
225.67567567567565
20
15
10
225.67567567567565
20
40
10
220.40540540540542
20
40
10
220.40540540540542
20
15
10
215.40540540540542
20
15
10
215.40540540540542
20
40
10
210.13513513513513
20
40
10
210.13513513513513
20
15
10
205.13513513513513
20
15
10
205.13513513513513
20
40
10
199.86486486486484
20
40
10
199.86486486486484
20
15
10
194.86486486486484
20
15
10
194.86486486486484
20
40
10
189.59459459459458
20
40
10
189.59459459459458
20
15
10
184.59459459459458
20
15
10
184.59459459459458
20
40
10
179.32432432432432
20
40
10
179.32432432432432
20
15
10
174.32432432432432
20
15
10
174.32432432432432
20
40
10
169.05405405405403
20
40
10
169.05405405405403
20
15
10
164.05405405405403
20
15
10
164.05405405405403
20
40
10
158.78378378378378
20
40
10
158.78378378378378
20
15
10
153.78378378378378
20
15
10
153.78378378378378
20
40
10
148.51351351351352
20
40
10
148.51351351351352
20
15
10
143.51351351351352
20
15
10
143.51351351351352
20
40
10
138.24324324324323
20
40
10
138.24324324324323
20
15
10
133.24324324324323
20
15
10
133.24324324324323
20
40
10
127.97297297297297
20
40
10
127.97297297297297
20
15
10
122.97297297297297
20
15
10
122.97297297297297
20
40
10
117.70270270270271
20
40
10
117.70270270270271
20
15
10
112.70270270270271
20
15
10
112.70270270270271
20
40
10
107.43243243243242
20
40
10
107.43243243243242
20
15
10
102.43243243243242
20
15
10
102.43243243243242
20
40
10
97.162162162162161
20
40
10
97.162162162162161
20
15
10
92.162162162162161
20
15
10
92.162162162162161
20
40
10
86.891891891891902
20
40
10
86.891891891891902
20
15
10
81.891891891891902
20
15
10
81.891891891891902
20
40
10
76.621621621621614
20
40
10
76.621621621621614
20
15
10
71.621621621621614
20
15
10
71.621621621621614
20
40
10
66.351351351351354
20
40
10
66.351351351351354
20
15
10
61.351351351351354
20
15
10
61.351351351351354
20
40
10
56.081081081081081
20
40
10
56.081081081081081
20
15
10
51.081081081081081
20
15
10
51.081081081081081
20
40
10
45.810810810810807
20
40
10
45.810810810810807
20
15
10
40.810810810810807
20
15
10
40.810810810810807
20
40
10
35.54054054054054
20
40
10
35.54054054054054
20
15
10
30.54054054054054
20
15
10
30.54054054054054
20
40
10
25.270270270270274
20
40
10
25.270270270270274
20
15
10
20.270270270270274
20
15
10
20.270270270270274
20
40
10
15
20
40
10
15
20
15
10
10
20
15
10
10
20
40
10
0
20
40
0
LWPOLYLINE
5
101
100
AcDbEntity
8
0
100
AcDbPolyline
90
12
70
1
43
0.0
10
425
20
0
10
535
20
0
10
535
20
40
10
525
20
40
10
525
20
25
10
520
20
25
10
520
20
40
10
440
20
40
10
440
20
25
10
435
20
25
10
435
20
40
10
425
20
40
0
ENDSEC
0
SECTION
2
OBJECTS
0
DICTIONARY
5
C
100
AcDbDictionary
3
ACAD_GROUP
350
D
3
ACAD_MLINESTYLE
350
17
0
DICTIONARY
5
D
100
AcDbDictionary
0
DICTIONARY
5
1A
330
C
100
AcDbDictionary
0
DICTIONARY
5
17
100
AcDbDictionary
0
ENDSEC
0
EOF
